<svg version="1.0" xmlns="http://www.w3.org/2000/svg" width="933.333" height="933.333" viewBox="0 0 700 700"><path d="M290.2 17.1c-2.8 1.7-5.9 4-6.7 5.2-1.3 1.9-1.5 18.5-1.5 134.5 0 142.3-.3 134.7 4.7 140.4 1.4 1.6 1.1 1.7-4.6 1.7l-6.2-.1-122.7 71.3C85.7 409.3 29.7 442 28.8 442.8c-1.5 1.3-1.8 3.3-1.8 13.7 0 10.4.3 12.4 1.8 13.7.9.9 85 49.7 186.7 108.4l185 106.9h14l122-70.8c67.1-39 123-72 124.3-73.3 2-2.3 2.2-3.5 2.2-13.5 0-10.4-.1-11.1-2.5-13.5-2.7-2.7-3-3.4-1.6-3.4 2.4 0 12.1-6.6 13.1-8.9.7-1.8.9-43.6.8-135.3l-.3-132.6-3-4.3c-2.7-3.8-19.6-13.8-170-100.6C286.9 6.5 299.9 14 297.5 14c-1.1 0-4.4 1.4-7.3 3.1zM478 168.9l171.5 99 .2 97.8c.2 53.8-.1 104.2-.5 111.9l-.7 14.2L472.2 390c-96.9-55.9-176.5-102-176.8-102.3-.3-.3-.2-50.7.2-112.1l.7-111.6 5.1 3c2.8 1.6 82.3 47.4 176.6 101.9z"/><path d="M326.2 135.1l.3 28.2 139 80.3c76.5 44.2 139.3 80.3 139.8 80.4.4 0 .7-12.7.7-28.3l-.1-28.2-138.6-80c-76.2-44-139.2-80.1-140-80.3-1.1-.3-1.3 4.5-1.1 27.9zm0 92l.3 36.3 44.5 25.7c24.5 14.2 44.8 25.8 45.3 25.8.4.1.7-16.2.7-36.2v-36.2L372.8 217c-24.3-14-44.8-25.6-45.5-25.8-1.1-.3-1.3 6.5-1.1 35.9zM436 260.8v6.8l84.3 48.7c46.4 26.8 84.7 48.7 85 48.7.4 0 .7-2.9.7-6.5 0-5.6-.3-6.6-2.2-7.9-3.4-2.2-167.1-96.6-167.5-96.6-.1 0-.3 3.1-.3 6.8zm.2 29.7l.3 6.8 83 48c45.7 26.3 83.8 48.2 84.8 48.4 1.5.5 1.7-.2 1.7-5.9v-6.5l-83.5-48.2c-45.9-26.5-84.2-48.4-85-48.8-1.4-.5-1.6.4-1.3 6.2zm-.7 25.8c-.4 1.8-.5 4.8-.3 6.7.3 3.2 1.2 3.8 46.8 30.1l46.5 26.9.7 4.2c.3 2.4.7 6.6.7 9.4.1 2.8.4 6.6.7 8.3l.7 3.1 4.5-2.5c3.5-2 4.7-2.3 5.4-1.3.5.7 3.4 5.7 6.4 11.1 3.1 5.3 6 10 6.5 10.3.7.4 14.7-6.4 16.8-8.2.2-.2-1.5-3.5-3.8-7.4-2.2-3.9-3.7-6.9-3.3-6.7 23.9 13.9 39.8 23 40.8 23.4 1.1.4 1.4-.9 1.4-6.1 0-7.7 2.9-5.2-24.2-20.8-13.6-7.9-17.3-10.4-16.2-11.3 1-.8-2.9-3.9-17.9-14.1l-19.2-13.1-.3 3.5c-.2 2.1-.8 3.2-1.5 2.9-.7-.2-21.2-12-45.6-26.1-24.4-14.1-44.5-25.6-44.7-25.6-.2 0-.6 1.5-.9 3.3z"/></svg>