<svg id="Layer_1" version="1.1" viewBox="0 0 50 50" xml:space="preserve" xmlns="http://www.w3.org/2000/svg"><style>.st0{fill:#b7c5fd}.st1{fill:#9aadfd}.st4{fill:#4466fb}.st7{fill:#6bb5fb}.st8{enable-background:new}.st11{fill:#384e85}</style><path class="st0" d="M47.058 37.416L29.777 47.459c-.367.213-.957.213-1.323.003L2.195 32.3c-.366-.21-.366-.553 0-.767L19.477 21.49c.363-.21.953-.21 1.319 0l26.259 15.16c.366.213.37.556.003.766z"/><path class="st1" d="M26.265 38.085c.208.12.207.316 0 .436l-4.296 2.497a.832.832 0 01-.754.001l-8.465-4.888c-.208-.12-.207-.316 0-.436l4.296-2.497a.832.832 0 01.753 0l8.466 4.887z"/><path class="st1" d="M47.33 37.036l-.004 1.384c0 .135-.092.274-.271.38L29.773 48.841c-.366.21-.956.21-1.322 0L2.192 33.683c-.183-.105-.275-.244-.275-.386l.004-1.38c0 .139.091.278.274.383l26.259 15.162c.366.21.956.21 1.323-.003l17.28-10.043c.184-.105.272-.24.272-.38zm-.603-20.602c.366.212.662.724.66 1.144l-.046 18.474c-.001.418-.299.59-.665.379l-25.88-14.94c-.366-.212-.662-.726-.66-1.144l.046-18.474c.002-.42.3-.59.665-.38l25.88 14.941z"/><path class="st4" d="M33.762 9.743c.317.183.569.623.568.984-.001.36-.254.509-.572.326-.314-.182-.566-.622-.565-.982.001-.361.255-.51.569-.328z"/><path class="st0" d="M48.083 17.175l-.048 18.474c0 .207-.074.356-.193.424l-.694.403c.118-.067.193-.217.193-.424l.048-18.473c0-.42-.295-.932-.662-1.146L20.847 1.494c-.183-.105-.35-.115-.471-.047l.694-.404c.118-.068.288-.058.471.047l25.88 14.943c.367.21.662.722.662 1.142z"/><path fill="#fff" d="M46.454 19.152L46.409 35.2l-25.34-14.628.046-16.047z"/><path class="st7" d="M43.251 25.13l-.002.955-12.111-6.992.003-.956z"/><g class="st8"><path class="st7" d="M43.24 29.333l-.003.956-12.111-6.992.003-.956zm.005-2.094l-.002.94-12.111-6.991.003-.941z"/><path class="st4" d="M43.27 19.141l-.01 4.007-19.93-11.506.011-4.007z"/></g><path fill="#798ffe" d="M29.754 17.337l-.015 5.16-6.431-3.714.014-5.16z"/><path class="st11" d="M37.705 25.606l2.757 1.875-.678.386.983 1.702-1.164.657-.983-1.702-.678.386zm-7.703 6.648l-1.481.86-1.69-.976 1.48-.86zm-1.868 1.085l-1.48.86-1.691-.975 1.48-.86z"/><g class="st8"><path class="st11" d="M22.389 23.53l-1.486.864-1.69-.976 1.486-.863zm2.27 1.31l-1.486.864-1.69-.976 1.485-.863zm-3.295.262l-1.486.864-2.533-1.462 1.486-.864zm5.564 1.049l-1.485.864-1.69-.976 1.485-.863zm-3.295.262l-1.485.863-1.69-.976 1.485-.863zm-6.848.374l-1.48.86-1.69-.975 1.48-.86zm4.138.225l-1.48.86-3.96-2.286 1.48-.86zm8.275.45l-1.486.863-1.69-.976 1.486-.863zm-3.295.261l-1.486.864-1.69-.976 1.486-.863zm-6.848.374l-1.48.86-1.69-.975 1.48-.86zm4.138.225l-1.481.86-1.69-.975 1.48-.86zm8.275.45l-1.486.864-1.69-.976 1.486-.864zm-3.295.262l-1.486.863-1.69-.976 1.486-.863zm-10.986.149l-1.48.86-3.96-2.286 1.48-.86zm4.138.225l-1.481.86-1.69-.976 1.48-.86zm4.137.225l-1.48.86-1.69-.976 1.48-.86zm8.275.45l-1.485.863-1.69-.976 1.485-.863zm-3.295.261l-1.485.863-1.685-.973 1.485-.863zm-6.848.374l-1.48.86-1.69-.975 1.48-.86zm4.138.225l-1.48.86-1.69-.975 1.48-.86zm-1.868 1.086l-1.48.86-1.69-.976 1.48-.86zm.499 2.451l-1.48.861-8.597-4.963 1.48-.86z"/></g><path class="st11" d="M33.075 38.356l-1.48.86-1.69-.976 1.48-.86zm-2.27-1.311l-1.48.86-1.69-.975 1.48-.86zm-2.269-1.31l-1.481.86-1.69-.975 1.48-.86zm1.868-1.085l-1.481.86-1.69-.976 1.48-.86zm1.867-1.086l-1.48.86-1.69-.975 1.48-.86zm2.716-.596l-1.486.863-1.69-.976 1.486-.863zm1.02-1.575l-1.485.863-1.69-.975 1.485-.864zm6.809 3.931l-1.485.864-1.686-.973 1.486-.864zm.407 2.399l-1.486.863-3.117-1.8 1.486-.863zm-8.28-.453l-1.48.86-1.69-.975 1.48-.86zm6.412 1.538l-1.48.861-3.96-2.286 1.48-.86zm-4.545-2.623l-1.48.86-1.69-.975 1.48-.861zm2.716-.596l-1.485.863-1.69-.976 1.485-.863zm1.021-1.575l-1.486.863-1.69-.976 1.485-.863zm-6.006.86l-1.48.86-1.69-.975 1.48-.86zm2.715-.596l-1.485.864-1.69-.976 1.485-.864zm1.021-1.575l-1.486.864-1.69-.976 1.486-.863zm6.813 3.935l-1.485.863-1.69-.976 1.486-.863zm-12.373-4.981l-1.486.864-1.69-.976 1.486-.863zm2.628 8.009l-1.48.86-1.686-.972 1.48-.86zm4.142.228L36.14 41.84l-1.69-.976 3.348-1.946z"/></svg>