<?xml version="1.0" encoding="utf-8"?><svg xmlns="http://www.w3.org/2000/svg" xmlns:xlink="http://www.w3.org/1999/xlink"><symbol viewBox="0 0 100 100" id="arrows--arrow-left_modal-mobile" xmlns="http://www.w3.org/2000/svg"><path d="M89.5 46H15.9l7.7-7.6c1-1 1-2.6 0-3.6s-2.6-1-3.6 0L7.8 47.1c-.8.8-.8 2 0 2.8L20 62.2c1 1 2.6 1 3.6 0s1-2.6 0-3.6L15.9 51h73.6c1.4 0 2.5-1.1 2.5-2.5S90.9 46 89.5 46z"/></symbol><symbol viewBox="0 0 525.153 525.153" id="arrows--arrow-up" xmlns="http://www.w3.org/2000/svg"><path d="M262.576 0L55.294 505.547 74.9 525.153 262.576 442.2l187.676 82.952 19.606-19.606L262.576 0z"/></symbol><symbol viewBox="0 0 512 512" id="arrows--left-arrow" xmlns="http://www.w3.org/2000/svg"><path d="M371.4 2.9c-2.1 1.6-58.9 58-126 125.2-90.2 90.4-122.3 123.1-122.6 125.1-.3 1.6-.3 4 0 5.5.3 2.1 32.7 35.1 124.1 126.6 68 68.1 124.8 124.5 126.3 125.3 3.6 1.9 7.4 1.8 10.8-.3 4.2-2.4 5.6-5.7 5.2-12.3-.2-1.9-29.8-32-119.9-122.2L149.5 256l119.8-119.8C359.4 46 389 15.9 389.2 14c.4-6.6-1-9.9-5.2-12.3-4.1-2.5-8.2-2.1-12.6 1.2z"/></symbol><symbol viewBox="0 0 512 512" id="arrows--right-arrow" xmlns="http://www.w3.org/2000/svg"><path d="M129.4 1c-3.8 1.5-6.4 5.9-6.4 10.9v4.6l119.7 119.7L362.5 256 242.7 375.8C152.5 466.1 123 496.1 122.8 498c-.3 5.1.4 7.6 2.9 10.2 3.4 3.6 8.1 4.5 12.5 2.4 1.9-.9 57.3-55.6 126.9-125.3 91.4-91.5 123.8-124.5 124.1-126.5.3-1.6.3-4 0-5.6-.3-2-32.7-35-124.1-126.5C197.1 58.6 140.3 2.2 138.8 1.4c-3-1.6-6.2-1.7-9.4-.4z"/></symbol><symbol viewBox="0 0 533.333 533.333" id="font--font" xmlns="http://www.w3.org/2000/svg"><path d="M416.457 8.442C369.308 8.442 339.051 0 290.495 0c-156.919 0-230.1 89.367-230.1 180.142 0 53.478 25.333 71.072 75.293 71.072-3.52-7.742-9.851-16.188-9.851-54.184 0-106.255 40.107-137.218 91.477-139.328 0 0-42.145 413.216-164.468 462.782v12.85h164.893l56.264-266.666h103.044L400 200H288.069l27.055-128.224c30.962 6.331 61.219 12.664 87.257 12.664 32.368 0 61.924-9.851 78.106-84.44-19.7 6.333-40.812 8.442-64.03 8.442z"/></symbol><symbol viewBox="0 0 512 512" id="modal--mail" xmlns="http://www.w3.org/2000/svg"><path d="M507.49 101.721L352.211 256 507.49 410.279c2.807-5.867 4.51-12.353 4.51-19.279V121c0-6.927-1.703-13.412-4.51-19.279zM467 76H45c-6.927 0-13.412 1.703-19.279 4.51l198.463 197.463c17.548 17.548 46.084 17.548 63.632 0L486.279 80.51C480.412 77.703 473.927 76 467 76zM4.51 101.721C1.703 107.588 0 114.073 0 121v270c0 6.927 1.703 13.413 4.51 19.279L159.789 256 4.51 101.721z"/><path d="M331 277.211l-21.973 21.973c-29.239 29.239-76.816 29.239-106.055 0L181 277.211 25.721 431.49C31.588 434.297 38.073 436 45 436h422c6.927 0 13.412-1.703 19.279-4.51L331 277.211z"/></symbol><symbol viewBox="0 0 93.934 93.934" id="modal--modal-close" xmlns="http://www.w3.org/2000/svg"><path d="M80.178 13.757c-18.341-18.342-48.08-18.342-66.421 0-18.342 18.341-18.342 48.08 0 66.421 18.341 18.342 48.08 18.342 66.421 0 18.342-18.342 18.342-48.08 0-66.421zm-8.602 47.98l-9.838 9.838-14.771-14.77-14.771 14.77-9.838-9.838 14.77-14.771-14.77-14.771 9.838-9.838 14.771 14.771 14.771-14.771 9.838 9.838-14.77 14.772 14.77 14.77z"/></symbol><symbol viewBox="0 0 24 24" id="modal--show-modal-right" xmlns="http://www.w3.org/2000/svg"><path d="M7.77 23.58l-2.24-2a.5.5 0 010-.71l7.9-8.87L5.5 3.13a.5.5 0 010-.71l2.24-2a.5.5 0 01.71 0L18.8 12 8.48 23.54a.5.5 0 01-.71.04z" data-name="Arrow Left"/></symbol><symbol viewBox="0 0 475.084 475.084" id="socials--github" xmlns="http://www.w3.org/2000/svg"><path d="M436.244 146.752c5.14-15.422 7.713-31.409 7.713-47.967 0-22.08-4.859-42.828-14.564-62.242-20.362 0-38.349 3.715-53.961 11.136-15.604 7.423-33.4 18.938-53.379 34.545-25.122-6.09-51.777-9.135-79.941-9.135-30.837 0-60.245 3.333-88.223 9.994-20.364-15.99-38.351-27.74-53.959-35.26-15.608-7.52-33.689-11.279-54.247-11.279-9.707 19.414-14.56 40.163-14.56 62.242 0 16.751 2.568 32.93 7.708 48.535C12.942 177.587 0 215.272 0 260.383c0 39.595 5.898 71.092 17.701 94.507 6.283 12.367 14.465 23.312 24.554 32.832 10.085 9.514 21.601 17.228 34.545 23.13 12.946 5.896 25.981 10.801 39.116 14.699 13.134 3.9 27.646 6.758 43.54 8.559 15.893 1.816 29.93 3.004 42.111 3.579 12.181.564 25.693.853 40.544.853 17.508 0 33.396-.432 47.678-1.283 14.277-.855 30.594-2.953 48.964-6.276 18.367-3.333 34.547-7.857 48.54-13.565 13.99-5.708 27.412-13.895 40.259-24.551 12.847-10.663 22.884-23.318 30.121-37.976 11.604-23.603 17.412-55.107 17.412-94.507-.007-45.302-12.95-83.178-38.841-113.632zm-34.249 207.703c-6.092 12.471-13.802 22.265-23.127 29.41-9.329 7.139-20.938 12.847-34.831 17.135-13.9 4.281-27.217 7.087-39.971 8.415-12.758 1.334-26.933 1.998-42.545 1.998h-47.966c-15.607 0-29.79-.664-42.541-1.998-12.752-1.328-26.075-4.134-39.971-8.415-13.891-4.288-25.5-9.996-34.829-17.135-9.329-7.146-17.037-16.939-23.128-29.41-6.09-12.471-9.136-27.076-9.136-43.824 0-22.847 6.567-42.264 19.702-58.245 13.134-15.99 30.929-23.982 53.387-23.982 8.188 0 26.746 1.997 55.677 5.995 13.513 2.093 28.456 3.14 44.823 3.14 16.372 0 31.313-1.044 44.824-3.14 29.317-3.999 47.869-5.995 55.678-5.995 22.457 0 40.252 7.996 53.386 23.982 13.135 15.988 19.698 35.398 19.698 58.245 0 16.751-3.046 31.364-9.13 43.824z"/><path d="M166.875 265.52c-5.806-6.475-12.703-9.712-20.699-9.712-7.998 0-14.896 3.241-20.701 9.712-5.802 6.468-9.897 13.703-12.275 21.689-2.383 8.002-3.571 15.804-3.571 23.422 0 7.61 1.191 15.413 3.571 23.414 2.375 7.991 6.468 15.222 12.275 21.689 5.808 6.475 12.703 9.713 20.701 9.713 7.996 0 14.896-3.244 20.699-9.713 5.804-6.468 9.897-13.698 12.275-21.689 2.38-8.001 3.571-15.804 3.571-23.414 0-7.611-1.188-15.42-3.571-23.422-2.379-7.983-6.468-15.215-12.275-21.689zm182.726 0c-5.804-6.475-12.703-9.712-20.697-9.712-7.991 0-14.894 3.241-20.701 9.712-5.804 6.468-9.896 13.703-12.271 21.689-2.385 8.002-3.576 15.804-3.576 23.422 0 7.61 1.191 15.413 3.576 23.414 2.375 7.991 6.468 15.222 12.271 21.689 5.808 6.475 12.71 9.713 20.701 9.713 7.994 0 14.894-3.244 20.697-9.713 5.801-6.468 9.896-13.698 12.278-21.689 2.379-8.001 3.569-15.804 3.569-23.414 0-7.611-1.19-15.42-3.569-23.422-2.381-7.983-6.477-15.215-12.278-21.689z"/></symbol><symbol viewBox="0 0 512 512" id="socials--telegram" xmlns="http://www.w3.org/2000/svg"><path d="M470.435 45.423L16.827 221.249c-18.254 8.188-24.428 24.585-4.412 33.484l116.37 37.173 281.368-174.79c15.363-10.973 31.091-8.047 17.557 4.024L186.053 341.075l-7.591 93.076c7.031 14.371 19.905 14.438 28.117 7.295l66.858-63.589 114.505 86.187c26.595 15.826 41.066 5.613 46.788-23.394l75.105-357.47c7.798-35.705-5.5-51.437-39.4-37.757z"/></symbol><symbol viewBox="0 0 548.358 548.358" id="socials--vk" xmlns="http://www.w3.org/2000/svg"><path d="M545.451 400.298c-.664-1.431-1.283-2.618-1.858-3.569-9.514-17.135-27.695-38.167-54.532-63.102l-.567-.571-.284-.28-.287-.287h-.288c-12.18-11.611-19.893-19.418-23.123-23.415-5.91-7.614-7.234-15.321-4.004-23.13 2.282-5.9 10.854-18.36 25.696-37.397 7.807-10.089 13.99-18.175 18.556-24.267 32.931-43.78 47.208-71.756 42.828-83.939l-1.701-2.847c-1.143-1.714-4.093-3.282-8.846-4.712-4.764-1.427-10.853-1.663-18.278-.712l-82.224.568c-1.332-.472-3.234-.428-5.712.144l-3.713.859-1.431.715-1.136.859c-.952.568-1.999 1.567-3.142 2.995-1.137 1.423-2.088 3.093-2.848 4.996-8.952 23.031-19.13 44.444-30.553 64.238-7.043 11.803-13.511 22.032-19.418 30.693-5.899 8.658-10.848 15.037-14.842 19.126-4 4.093-7.61 7.372-10.852 9.849-3.237 2.478-5.708 3.525-7.419 3.142-1.715-.383-3.33-.763-4.859-1.143-2.663-1.714-4.805-4.045-6.42-6.995-1.622-2.95-2.714-6.663-3.285-11.136-.568-4.476-.904-8.326-1-11.563-.089-3.233-.048-7.806.145-13.706.198-5.903.287-9.897.287-11.991 0-7.234.141-15.085.424-23.555.288-8.47.521-15.181.716-20.125.194-4.949.284-10.185.284-15.705s-.336-9.849-1-12.991a44.442 44.442 0 00-2.99-9.137c-1.335-2.95-3.289-5.232-5.853-6.852-2.569-1.618-5.763-2.902-9.564-3.856-10.089-2.283-22.936-3.518-38.547-3.71-35.401-.38-58.148 1.906-68.236 6.855-3.997 2.091-7.614 4.948-10.848 8.562-3.427 4.189-3.905 6.475-1.431 6.851 11.422 1.711 19.508 5.804 24.267 12.275l1.715 3.429c1.334 2.474 2.666 6.854 3.999 13.134 1.331 6.28 2.19 13.227 2.568 20.837.95 13.897.95 25.793 0 35.689-.953 9.9-1.853 17.607-2.712 23.127-.859 5.52-2.143 9.993-3.855 13.418-1.715 3.426-2.856 5.52-3.428 6.28-.571.76-1.047 1.239-1.425 1.427a21.387 21.387 0 01-7.71 1.431c-2.667 0-5.901-1.334-9.707-4-3.805-2.666-7.754-6.328-11.847-10.992-4.093-4.665-8.709-11.184-13.85-19.558-5.137-8.374-10.467-18.271-15.987-29.691l-4.567-8.282c-2.855-5.328-6.755-13.086-11.704-23.267-4.952-10.185-9.329-20.037-13.134-29.554-1.521-3.997-3.806-7.04-6.851-9.134l-1.429-.859c-.95-.76-2.475-1.567-4.567-2.427a30.301 30.301 0 00-6.567-1.854l-78.229.568c-7.994 0-13.418 1.811-16.274 5.428l-1.143 1.711c-.571.953-.859 2.475-.859 4.57 0 2.094.571 4.664 1.714 7.707 11.42 26.84 23.839 52.725 37.257 77.659 13.418 24.934 25.078 45.019 34.973 60.237 9.897 15.229 19.985 29.602 30.264 43.112 10.279 13.515 17.083 22.176 20.412 25.981 3.333 3.812 5.951 6.662 7.854 8.565l7.139 6.851c4.568 4.569 11.276 10.041 20.127 16.416 8.853 6.379 18.654 12.659 29.408 18.85 10.756 6.181 23.269 11.225 37.546 15.126 14.275 3.905 28.169 5.472 41.684 4.716h32.834c6.659-.575 11.704-2.669 15.133-6.283l1.136-1.431c.764-1.136 1.479-2.901 2.139-5.276.668-2.379 1-5 1-7.851-.195-8.183.428-15.558 1.852-22.124 1.423-6.564 3.045-11.513 4.859-14.846 1.813-3.33 3.859-6.14 6.136-8.418 2.282-2.283 3.908-3.666 4.862-4.142.948-.479 1.705-.804 2.276-.999 4.568-1.522 9.944-.048 16.136 4.429 6.187 4.473 11.99 9.996 17.418 16.56 5.425 6.57 11.943 13.941 19.555 22.124 7.617 8.186 14.277 14.271 19.985 18.274l5.708 3.426c3.812 2.286 8.761 4.38 14.853 6.283 6.081 1.902 11.409 2.378 15.984 1.427l73.087-1.14c7.229 0 12.854-1.197 16.844-3.572 3.998-2.379 6.373-5 7.139-7.851.764-2.854.805-6.092.145-9.712-.677-3.611-1.344-6.136-2.008-7.563z"/></symbol><symbol viewBox="0 0 512 512" id="socials--whatsapp" xmlns="http://www.w3.org/2000/svg"><path d="M500.4 241.8c-.6 63.4-16.9 113-50.8 156.1-36.4 46.3-83.8 75.7-141.8 87.6-44.8 9.1-88.4 5.1-131.2-10.4-9.5-3.5-18.8-7.6-27.7-12.5-2.7-1.5-5-1.7-8-.7-40.5 13.1-81.1 26.1-121.7 39-1.8.6-4.2 2.3-5.6 1-1.6-1.6.4-4 1-5.9 8.1-24.1 16.2-48.3 24.4-72.4 5-14.7 9.8-29.3 15-43.9 1.4-3.8.9-6.7-1.2-10.2-10.3-17.6-17.9-36.4-23.3-56.1-10.1-37-11.2-74.4-3.3-111.8 8.6-40.8 26.6-77.2 54.3-108.6 33.5-38 74.8-63.1 123.9-75.2 31.3-7.7 62.9-8.9 94.7-3.7 41.6 6.8 79.1 23.3 111.8 49.9 34 27.7 58.8 62.1 74.4 103.4 8.6 22.3 15.4 58.8 15.1 74.4zM74.6 441.5c24.8-8 48.5-15.6 72-23.3 3.1-1 5.6-.8 8.3 1 9 6 18.7 10.8 28.7 15 32.5 13.8 66.3 18.8 101.2 14.3 42.8-5.5 80.4-22.7 112-52.6 39.8-37.7 61.1-83.9 63-138.5 1.8-53.5-15.4-100.5-51.3-140.4-34.1-37.9-76.9-59.5-127.4-64.9-43.9-4.7-85 4.8-123 27.6-32.5 19.6-57.4 46.3-74.7 80-19.1 37.1-25.6 76.5-20.1 117.8 4.1 31.2 15.3 59.9 33.3 85.7 2 2.9 2.6 5.3 1.4 8.7-3.7 10.2-7 20.5-10.5 30.7-4.2 12.6-8.3 25.2-12.9 38.9z"/><path d="M141 194.7c.5-23.8 8.9-41.5 24.8-55.6 5.1-4.6 11.4-6.6 18.5-5.6 3 .4 6 .7 9 .5 5.6-.3 9.4 2.4 11.3 7.3 6.7 17.4 13.2 34.8 19.7 52.3 2.2 6-1.6 10.7-4.8 15-3.7 5.1-8.2 9.6-12.6 14.1-4.5 4.6-5.1 7.2-2 12.8 18.1 32.9 43.5 58.2 78 73.8 1.2.5 2.4 1.2 3.6 1.8 4.6 2.1 8.7 1.6 12.2-2.4 6.4-7.5 13.4-14.4 19.3-22.3 3.9-5.2 6.6-6.1 12.5-3.5 17.6 7.6 34.1 17.2 50.9 26.5 3.1 1.7 4.2 4.3 4.1 7.9-.9 29.5-17.8 44.9-47.5 51.7-14.4 3.3-27.7-.3-40.9-5.1-27.7-10-54.4-21.8-76.8-41.6-17.8-15.8-33.5-33.4-46.8-53.1-10.2-15.2-20.8-30.1-26.7-47.8-3.4-9.4-5.9-19-5.8-26.7z"/></symbol><symbol viewBox="0 0 48 48" id="theme--dark-icon" xmlns="http://www.w3.org/2000/svg"><g data-name="&lt;Group>"><ellipse data-name="&lt;Ellipse>" cx="25.67" cy="45.5" rx="14.5" ry="1.5"/><path data-name="&lt;Path>" d="M28.3 4.65A15.42 15.42 0 116.64 26.32a.62.62 0 00-1.1.52A18.84 18.84 0 1028.83 3.55a.62.62 0 00-.53 1.1z"/><g data-name="&lt;Group>"><path data-name="&lt;Path>" d="M41.05 14.43a19.23 19.23 0 010 5.36 18.84 18.84 0 01-35.2 6.35.58.58 0 00-.31.7 18.84 18.84 0 1035.51-12.41z"/></g><path data-name="&lt;Path>" d="M28.3 4.65A15.42 15.42 0 116.64 26.32a.62.62 0 00-1.1.52A18.84 18.84 0 1028.83 3.55a.62.62 0 00-.53 1.1z"/></g></symbol><symbol id="theme--light-icon" viewBox="0 0 272 272" xmlns="http://www.w3.org/2000/svg"><defs><style>.ncls-1{fill:#ffeb3c}</style></defs><ellipse class="ncls-1" cx="136" cy="136.89" rx="78.81" ry="79.36"/><path class="ncls-1" d="M136 8l-17.11 29.84h34.22L136 8zm128 128.88l-29.63 17.23v-34.45L264 136.88zm-256 0l29.63 17.23v-34.45L8 136.88zm37.49-91.13l8.85 33.28 24.2-24.36-33.05-8.92zm181.02 0l-33.05 8.92 24.2 24.36 8.85-33.28zM136 264l-17.11-29.84h34.22L136 264zm-90.51-37.75l8.85-33.28 24.2 24.36-33.05 8.92zm181.02 0l-33.05-8.92 24.2-24.36 8.85 33.28z"/></symbol></svg>