<?xml version="1.0" standalone="no"?>
<!DOCTYPE svg PUBLIC "-//W3C//DTD SVG 20010904//EN"
 "http://www.w3.org/TR/2001/REC-SVG-20010904/DTD/svg10.dtd">
<svg version="1.0" xmlns="http://www.w3.org/2000/svg"
 width="700.000000pt" height="700.000000pt" viewBox="0 0 700.000000 700.000000"
 preserveAspectRatio="xMidYMid meet">
<metadata>
Created by potrace 1.14, written by Peter Selinger 2001-2017
</metadata>
<g transform="translate(0.000000,700.000000) scale(0.100000,-0.100000)"
fill="#000000" stroke="none">
<path d="M2902 6829 c-28 -17 -59 -40 -67 -52 -13 -19 -15 -185 -15 -1345 0
-1423 -3 -1347 47 -1404 14 -16 11 -17 -46 -17 l-62 1 -1227 -713 c-675 -392
-1235 -719 -1244 -727 -15 -13 -18 -33 -18 -137 0 -104 3 -124 18 -137 9 -9
850 -497 1867 -1084 l1850 -1069 70 0 70 0 1220 708 c671 390 1230 720 1243
733 20 23 22 35 22 135 0 104 -1 111 -25 135 -27 27 -30 34 -16 34 24 0 121
66 131 89 7 18 9 436 8 1353 l-3 1326 -30 43 c-27 38 -196 138 -1700 1006
-2126 1228 -1996 1153 -2020 1153 -11 0 -44 -14 -73 -31z m1878 -1518 l1715
-990 2 -978 c2 -538 -1 -1042 -5 -1119 l-7 -142 -1763 1018 c-969 559 -1765
1020 -1768 1023 -3 3 -2 507 2 1121 l7 1116 51 -30 c28 -16 823 -474 1766
-1019z"/>
<path d="M3262 5649 l3 -282 1390 -803 c765 -442 1393 -803 1398 -804 4 0 7
127 7 283 l-1 282 -1386 800 c-762 440 -1392 801 -1400 803 -11 3 -13 -45 -11
-279z"/>
<path d="M3262 4729 l3 -363 445 -257 c245 -142 448 -258 453 -258 4 -1 7 162
7 362 l0 362 -442 255 c-243 140 -448 256 -455 258 -11 3 -13 -65 -11 -359z"/>
<path d="M4360 4392 l0 -68 843 -487 c464 -268 847 -487 850 -487 4 0 7 29 7
65 0 56 -3 66 -22 79 -34 22 -1671 966 -1675 966 -1 0 -3 -31 -3 -68z"/>
<path d="M4362 4095 l3 -68 830 -480 c457 -263 838 -482 848 -484 15 -5 17 2
17 59 l0 65 -835 482 c-459 265 -842 484 -850 488 -14 5 -16 -4 -13 -62z"/>
<path d="M4355 3837 c-4 -18 -5 -48 -3 -67 3 -32 12 -38 468 -301 l465 -269 7
-42 c3 -24 7 -66 7 -94 1 -28 4 -66 7 -83 l7 -31 45 25 c35 20 47 23 54 13 5
-7 34 -57 64 -111 31 -53 60 -100 65 -103 7 -4 147 64 168 82 2 2 -15 35 -38
74 -22 39 -37 69 -33 67 239 -139 398 -230 408 -234 11 -4 14 9 14 61 0 77 29
52 -242 208 -136 79 -173 104 -162 113 10 8 -29 39 -179 141 l-192 131 -3 -35
c-2 -21 -8 -32 -15 -29 -7 2 -212 120 -456 261 -244 141 -445 256 -447 256 -2
0 -6 -15 -9 -33z"/>
</g>
</svg>
